<svg width="33" height="32" viewBox="0 0 33 32" fill="none" xmlns="http://www.w3.org/2000/svg">
<rect x="0.5" y="3.05176e-05" width="32" height="32" rx="16" fill="#E1E1E1"/>
<g clip-path="url(#clip0_1_850)">
<path d="M10.9303 22.1987C11.4372 21.0044 12.6208 20.1667 14 20.1667H19C20.3793 20.1667 21.5628 21.0044 22.0698 22.1987M19.8334 13.9167C19.8334 15.7577 18.341 17.25 16.5 17.25C14.6591 17.25 13.1667 15.7577 13.1667 13.9167C13.1667 12.0758 14.6591 10.5834 16.5 10.5834C18.341 10.5834 19.8334 12.0758 19.8334 13.9167ZM24.8334 16C24.8334 20.6024 21.1024 24.3334 16.5 24.3334C11.8976 24.3334 8.16669 20.6024 8.16669 16C8.16669 11.3977 11.8976 7.6667 16.5 7.6667C21.1024 7.6667 24.8334 11.3977 24.8334 16Z" stroke="#444444" stroke-width="1.4" stroke-linecap="round" stroke-linejoin="round"/>
</g>
<defs>
<clipPath id="clip0_1_850">
<rect width="20" height="20" fill="white" transform="translate(6.5 6.00003)"/>
</clipPath>
</defs>
</svg>
