<svg width="33" height="32" viewBox="0 0 33 32" fill="none" xmlns="http://www.w3.org/2000/svg">
<rect x="0.5" y="0.00012207" width="32" height="32" rx="16" fill="#E1E1E1"/>
<path d="M13.8333 10.0001H13.7C12.5799 10.0001 12.0198 10.0001 11.592 10.2181C11.2157 10.4099 10.9097 10.7158 10.718 11.0921C10.5 11.52 10.5 12.08 10.5 13.2001V13.3335M13.8333 22.0001H13.7C12.5799 22.0001 12.0198 22.0001 11.592 21.7821C11.2157 21.5904 10.9097 21.2844 10.718 20.9081C10.5 20.4803 10.5 19.9202 10.5 18.8001V18.6668M22.5 13.3335V13.2001C22.5 12.08 22.5 11.52 22.282 11.0921C22.0903 10.7158 21.7843 10.4099 21.408 10.2181C20.9802 10.0001 20.4201 10.0001 19.3 10.0001H19.1667M22.5 18.6668V18.8001C22.5 19.9202 22.5 20.4803 22.282 20.9081C22.0903 21.2844 21.7843 21.5904 21.408 21.7821C20.9802 22.0001 20.4201 22.0001 19.3 22.0001H19.1667M13.5 13.3335V14.3335M19.5 13.3335V14.3335M15.8333 16.4002C16.3667 16.4002 16.8333 15.9335 16.8333 15.4002V13.3335M18.6335 18.1334C17.4335 19.3334 15.5001 19.3334 14.3001 18.1334" stroke="#444444" stroke-width="1.4" stroke-linecap="round" stroke-linejoin="round"/>
</svg>
