<svg width="33" height="32" viewBox="0 0 33 32" fill="none" xmlns="http://www.w3.org/2000/svg">
<rect x="0.5" width="32" height="32" rx="16" fill="#F2C2C7"/>
<path d="M13.8333 10H13.7C12.5799 10 12.0198 10 11.592 10.218C11.2157 10.4097 10.9097 10.7157 10.718 11.092C10.5 11.5198 10.5 12.0799 10.5 13.2V13.3333M13.8333 22H13.7C12.5799 22 12.0198 22 11.592 21.782C11.2157 21.5903 10.9097 21.2843 10.718 20.908C10.5 20.4802 10.5 19.9201 10.5 18.8V18.6667M22.5 13.3333V13.2C22.5 12.0799 22.5 11.5198 22.282 11.092C22.0903 10.7157 21.7843 10.4097 21.408 10.218C20.9802 10 20.4201 10 19.3 10H19.1667M22.5 18.6667V18.8C22.5 19.9201 22.5 20.4802 22.282 20.908C22.0903 21.2843 21.7843 21.5903 21.408 21.782C20.9802 22 20.4201 22 19.3 22H19.1667M13.5 13.3333V14.3333M19.5 13.3333V14.3333M15.8333 16.4001C16.3667 16.4001 16.8333 15.9334 16.8333 15.4001V13.3333M18.6335 18.1333C17.4335 19.3333 15.5001 19.3333 14.3001 18.1333" stroke="#444444" stroke-width="1.4" stroke-linecap="round" stroke-linejoin="round"/>
</svg>
